<svg width="1330" height="559" viewBox="0 0 1330 559" fill="none" xmlns="http://www.w3.org/2000/svg">
<path d="M459.213 63.4844H487.709L567.45 248.608H529.804L512.548 206.247H432.276L415.545 248.608H378.675L459.213 63.4844ZM501.041 178.01L472.545 102.704L443.524 178.01H501.041Z" fill="black"/>
<path d="M595.408 50.9358H626.786V248.608H595.408V50.9358Z" fill="black"/>
<path d="M659.242 80.4817C659.222 78.0148 659.709 75.5702 660.671 73.2988C661.634 71.0274 663.052 68.9775 664.838 67.2756C668.568 63.545 673.318 61.6798 679.086 61.6798C684.854 61.6798 689.69 63.4681 693.593 67.0447C695.494 68.7261 697.005 70.802 698.021 73.1276C699.037 75.4532 699.534 77.9725 699.476 80.5097C699.535 83.047 699.039 85.5667 698.023 87.8925C697.007 90.2183 695.495 92.2941 693.593 93.9746C689.676 97.5466 684.84 99.3325 679.086 99.3325C673.332 99.3325 668.582 97.4673 664.838 93.7367C663.046 92.0292 661.624 89.9713 660.662 87.691C659.699 85.4107 659.216 82.9567 659.242 80.4817ZM663.684 123.108H695.062V248.608H663.684V123.108Z" fill="black"/>
<path d="M804.733 157.879C798.633 149.336 790.44 145.064 780.153 145.064C775.864 145.09 771.647 146.166 767.87 148.198C763.855 150.296 761.85 153.696 761.855 158.396C761.855 162.239 763.51 165.037 766.821 166.79C770.806 168.782 775.02 170.276 779.37 171.239C784.429 172.465 789.878 173.729 795.717 175.03C801.41 176.287 806.907 178.31 812.056 181.045C817.058 183.705 821.358 187.511 824.605 192.153C827.911 196.858 829.567 203.31 829.571 211.507C829.571 219.001 827.96 225.32 824.738 230.463C821.584 235.529 817.283 239.783 812.182 242.879C806.813 246.109 800.936 248.407 794.8 249.678C788.444 251.063 781.958 251.766 775.453 251.776C766.304 251.867 757.203 250.449 748.516 247.579C740.327 244.782 733.006 239.727 726.552 232.415L747.474 212.829C751.224 217.144 755.583 220.888 760.414 223.944C765.031 226.821 770.652 228.26 777.278 228.26C779.652 228.249 782.018 227.986 784.336 227.477C786.728 226.973 789.023 226.09 791.135 224.86C793.141 223.717 794.88 222.157 796.234 220.286C797.556 218.415 798.245 216.169 798.2 213.879C798.2 209.523 796.542 206.299 793.226 204.205C789.33 201.871 785.098 200.151 780.678 199.106C775.618 197.795 770.172 196.576 764.338 195.448C758.667 194.371 753.169 192.523 747.998 189.957C743.016 187.498 738.706 183.863 735.443 179.367C732.132 174.834 730.476 168.557 730.476 160.537C730.476 153.57 731.915 147.508 734.792 142.35C737.575 137.317 741.464 132.981 746.166 129.669C751.08 126.264 756.575 123.785 762.38 122.352C776.706 118.649 791.813 119.331 805.747 124.311C813.747 127.047 820.694 132.212 825.619 139.084L804.733 157.879Z" fill="black"/>
<path d="M381.669 284.98H483.562V299.103H397.197V358.397H478.148V372.52H397.197V437.466H487.325V451.589H381.669V284.98Z" fill="black"/>
<path d="M546.032 392.756L507.204 342.869H525.306L555.426 384.047L585.307 342.869H602.962L564.624 392.756L611.216 451.589H592.862L554.971 402.408L517.794 451.589H500.825L546.032 392.756Z" fill="black"/>
<path d="M712.913 435.585C707.578 442.02 701.537 446.767 694.789 449.826C687.907 452.914 680.439 454.479 672.896 454.414C665.001 454.497 657.164 453.057 649.813 450.176C643.009 447.519 636.835 443.469 631.69 438.285C626.604 433.086 622.605 426.928 619.924 420.168C614.272 405.393 614.272 389.051 619.924 374.275C622.607 367.517 626.606 361.358 631.69 356.159C636.835 350.975 643.009 346.925 649.813 344.268C657.164 341.386 665.001 339.947 672.896 340.029C680.588 339.962 688.193 341.654 695.132 344.974C702.067 348.355 708.264 353.073 713.367 358.859L702.071 367.33C698.266 362.999 693.727 359.373 688.662 356.621C683.809 354.041 678.391 352.712 672.896 352.753C666.752 352.662 660.658 353.865 655.01 356.285C649.866 358.509 645.228 361.755 641.377 365.826C637.57 369.89 634.645 374.698 632.788 379.948C628.861 391.144 628.861 403.342 632.788 414.537C634.645 419.787 637.57 424.596 641.377 428.66C645.234 432.727 649.877 435.968 655.024 438.187C660.669 440.6 666.758 441.798 672.896 441.705C678.611 441.768 684.246 440.348 689.249 437.585C694.21 434.839 698.573 431.132 702.085 426.68L712.913 435.585Z" fill="black"/>
<path d="M740.43 273.684H754.552V361.93H755.021C757.847 355.97 762.552 350.841 769.136 346.541C775.721 342.242 783.415 340.085 792.219 340.071C800.697 340.071 807.601 341.405 812.931 344.072C817.933 346.471 822.26 350.076 825.521 354.564C828.653 359.052 830.816 364.143 831.872 369.512C833.062 375.239 833.655 381.073 833.642 386.922V451.637H819.52V387.579C819.528 383.278 819.135 378.986 818.345 374.758C817.638 370.815 816.243 367.027 814.225 363.566C812.237 360.248 809.393 357.525 805.992 355.683C802.462 353.716 797.871 352.734 792.219 352.739C787.196 352.713 782.214 353.631 777.53 355.446C772.927 357.231 768.805 360.067 765.492 363.727C761.913 367.766 759.19 372.49 757.49 377.612C755.532 383.208 754.552 389.757 754.552 397.26V451.623H740.43V273.684Z" fill="black"/>
<path d="M945.579 405.934C945.579 411.273 945.619 416.057 945.698 420.287C945.777 424.516 945.894 428.441 946.048 432.059C946.211 435.668 946.409 439.04 946.642 442.174C946.876 445.307 947.228 448.446 947.699 451.589H934.5C933.52 445.758 933.052 439.853 933.101 433.941H932.632C928.547 441.001 923.487 446.177 917.453 449.469C911.419 452.761 903.772 454.41 894.51 454.414C889.826 454.415 885.16 453.821 880.626 452.645C876.23 451.542 872.078 449.628 868.385 447C864.735 444.367 861.721 440.949 859.565 436.997C857.294 432.917 856.158 427.977 856.158 422.176C856.158 413.856 858.275 407.267 862.51 402.408C866.757 397.537 872.131 393.779 878.164 391.462C884.506 388.996 891.158 387.412 897.931 386.754C904.926 386.05 911.081 385.698 916.397 385.698H932.877V379.116C932.877 369.701 929.974 362.956 924.168 358.88C918.363 354.804 911.067 352.764 902.282 352.76C890.094 352.628 878.284 356.982 869.099 364.993L860.866 355.334C866.358 350.125 872.954 346.223 880.164 343.918C887.276 341.429 894.747 340.118 902.282 340.036C915.46 340.036 925.971 343.135 933.814 349.332C941.658 355.53 945.579 365.532 945.579 379.34V405.934ZM917.341 396.994C911.555 396.982 905.775 397.375 900.043 398.17C894.872 398.848 889.81 400.192 884.984 402.171C880.869 403.801 877.199 406.382 874.275 409.704C871.607 412.838 870.274 416.759 870.274 421.469C870.222 424.556 870.995 427.601 872.512 430.289C873.939 432.808 875.907 434.977 878.276 436.641C880.681 438.317 883.344 439.59 886.159 440.411C889.023 441.267 891.997 441.703 894.986 441.705C902.517 441.705 908.714 440.607 913.578 438.41C918.073 436.488 922.06 433.547 925.224 429.821C928.109 426.326 930.161 422.222 931.226 417.818C932.32 413.392 932.875 408.849 932.877 404.29V396.994H917.341Z" fill="black"/>
<path d="M975.922 373.464C975.922 371.422 975.839 368.952 975.685 366.05C975.531 363.147 975.412 360.209 975.335 357.222C975.258 354.236 975.132 351.459 974.985 348.871C974.838 346.282 974.747 344.282 974.747 342.869H988.863C989.017 346.954 989.136 350.876 989.219 354.634C989.303 358.393 989.499 360.825 989.807 361.93H990.506C993.332 355.97 998.038 350.841 1004.62 346.541C1011.21 342.242 1018.9 340.085 1027.7 340.071C1036.17 340.071 1043.08 341.405 1048.42 344.072C1053.42 346.473 1057.74 350.078 1061.01 354.564C1064.14 359.052 1066.3 364.143 1067.36 369.512C1068.54 375.239 1069.14 381.073 1069.13 386.922V451.637H1055.01V387.579C1055.01 383.278 1054.62 378.986 1053.83 374.758C1053.12 370.815 1051.73 367.027 1049.71 363.566C1047.72 360.246 1044.88 357.523 1041.47 355.683C1037.95 353.716 1033.36 352.734 1027.7 352.739C1022.68 352.713 1017.7 353.631 1013.02 355.446C1008.42 357.232 1004.3 360.068 1000.98 363.727C997.405 367.766 994.683 372.49 992.983 377.612C991.02 383.208 990.04 389.757 990.045 397.26V451.623H975.922V373.464Z" fill="black"/>
<path d="M1201.03 444.531C1201.03 458.017 1199.07 468.919 1195.15 477.238C1191.23 485.557 1186.33 491.99 1180.46 496.537C1174.89 500.937 1168.42 504.071 1161.51 505.721C1155.5 507.195 1149.34 507.984 1143.15 508.071C1137.75 508.077 1132.37 507.564 1127.07 506.539C1121.95 505.559 1116.94 504.062 1112.12 502.07C1107.58 500.198 1103.27 497.789 1099.3 494.893C1095.54 492.149 1092.17 488.904 1089.29 485.247L1100.36 474.888C1105.07 481.701 1111.58 487.076 1119.16 490.416C1126.73 493.719 1134.91 495.401 1143.17 495.355C1150.38 495.355 1156.45 494.422 1161.4 492.557C1165.93 490.923 1170.09 488.402 1173.64 485.142C1176.73 482.246 1179.28 478.818 1181.17 475.021C1182.91 471.495 1184.25 467.786 1185.17 463.962C1186 460.519 1186.51 457.007 1186.7 453.47C1186.85 450.176 1186.93 447.511 1186.93 445.468V430.408H1186.46C1182.41 436.967 1176.69 442.327 1169.87 445.937C1162.88 449.709 1154.68 451.593 1145.28 451.589C1137.54 451.64 1129.86 450.162 1122.69 447.238C1108.92 441.681 1097.83 431.014 1091.75 417.468C1088.72 410.651 1087.16 403.275 1087.16 395.816C1087.16 388.357 1088.72 380.981 1091.75 374.164C1094.73 367.53 1098.96 361.537 1104.22 356.516C1109.58 351.424 1115.83 347.359 1122.66 344.52C1129.81 341.519 1137.49 339.996 1145.24 340.043C1154.66 340.043 1162.86 341.927 1169.84 345.695C1176.65 349.304 1182.38 354.664 1186.43 361.223H1186.9V342.869H1201.01L1201.03 444.531ZM1187.39 395.819C1187.42 390.034 1186.26 384.305 1183.97 378.99C1179.63 368.69 1171.43 360.498 1161.13 356.166C1155.81 353.913 1150.08 352.753 1144.3 352.753C1138.52 352.753 1132.8 353.913 1127.48 356.166C1117.18 360.503 1108.99 368.694 1104.65 378.99C1102.4 384.314 1101.24 390.035 1101.24 395.816C1101.24 401.596 1102.4 407.318 1104.65 412.642C1108.99 422.938 1117.18 431.129 1127.48 435.466C1132.8 437.718 1138.52 438.879 1144.3 438.879C1150.08 438.879 1155.81 437.718 1161.13 435.466C1171.43 431.129 1179.62 422.938 1183.95 412.642C1186.25 407.331 1187.42 401.604 1187.39 395.819Z" fill="black"/>
<path d="M1325.71 431.115C1320.21 439.429 1313.43 445.391 1305.35 449C1296.93 452.679 1287.83 454.525 1278.64 454.414C1270.91 454.525 1263.23 453.083 1256.06 450.176C1249.48 447.471 1243.55 443.42 1238.64 438.285C1233.7 433.079 1229.89 426.912 1227.45 420.168C1224.78 412.734 1223.47 404.884 1223.56 396.987C1223.48 389.273 1224.84 381.611 1227.57 374.394C1230.1 367.702 1233.94 361.581 1238.86 356.39C1243.73 351.29 1249.58 347.211 1256.04 344.394C1262.95 341.425 1270.4 339.941 1277.92 340.036C1286.24 340.036 1293.58 341.489 1299.93 344.394C1306 347.093 1311.45 351.017 1315.93 355.921C1320.23 360.679 1323.56 366.235 1325.72 372.275C1327.89 378.234 1329.01 384.526 1329.02 390.867V400.751H1237.7C1237.83 404.613 1238.42 408.445 1239.46 412.166C1240.75 417.041 1242.95 421.63 1245.93 425.694C1249.3 430.296 1253.59 434.144 1258.52 436.99C1263.78 440.133 1270.56 441.703 1278.88 441.698C1286.17 441.678 1293.36 439.902 1299.82 436.522C1306.23 433.377 1311.62 428.48 1315.36 422.399L1325.71 431.115ZM1314.88 388.048C1314.91 383.339 1313.91 378.68 1311.94 374.401C1310.01 370.199 1307.29 366.402 1303.94 363.21C1300.45 359.933 1296.38 357.344 1291.93 355.578C1287.26 353.699 1282.27 352.749 1277.24 352.781C1269.55 352.781 1263.16 354.35 1258.07 357.488C1253.36 360.27 1249.24 363.946 1245.95 368.309C1243.22 371.915 1241.08 375.928 1239.6 380.2C1238.34 384.047 1237.71 386.675 1237.72 388.083L1314.88 388.048Z" fill="black"/>
<path d="M162.292 90.1624C187.19 90.1624 207.374 69.9789 207.374 45.0812C207.374 20.1835 187.19 0 162.292 0C137.395 0 117.211 20.1835 117.211 45.0812C117.211 69.9789 137.395 90.1624 162.292 90.1624Z" fill="#F02222"/>
<path d="M162.292 207.374C187.19 207.374 207.374 187.19 207.374 162.292C207.374 137.395 187.19 117.211 162.292 117.211C137.395 117.211 117.211 137.395 117.211 162.292C117.211 187.19 137.395 207.374 162.292 207.374Z" fill="#F02222"/>
<path d="M162.292 324.578C187.19 324.578 207.374 304.394 207.374 279.496C207.374 254.599 187.19 234.415 162.292 234.415C137.395 234.415 117.211 254.599 117.211 279.496C117.211 304.394 137.395 324.578 162.292 324.578Z" fill="#F02222"/>
<path d="M279.496 90.1624C304.394 90.1624 324.578 69.9789 324.578 45.0812C324.578 20.1835 304.394 0 279.496 0C254.599 0 234.415 20.1835 234.415 45.0812C234.415 69.9789 254.599 90.1624 279.496 90.1624Z" fill="#F02222"/>
<path d="M279.496 207.374C304.394 207.374 324.578 187.19 324.578 162.292C324.578 137.395 304.394 117.211 279.496 117.211C254.599 117.211 234.415 137.395 234.415 162.292C234.415 187.19 254.599 207.374 279.496 207.374Z" fill="#F02222"/>
<path d="M279.496 324.578C304.394 324.578 324.578 304.394 324.578 279.496C324.578 254.599 304.394 234.415 279.496 234.415C254.599 234.415 234.415 254.599 234.415 279.496C234.415 304.394 254.599 324.578 279.496 324.578Z" fill="#F02222"/>
<path d="M45.0812 324.578C69.9789 324.578 90.1624 304.394 90.1624 279.496C90.1624 254.599 69.9789 234.415 45.0812 234.415C20.1835 234.415 0 254.599 0 279.496C0 304.394 20.1835 324.578 45.0812 324.578Z" fill="#F02222"/>
<path d="M45.0812 441.789C69.9789 441.789 90.1624 421.605 90.1624 396.708C90.1624 371.81 69.9789 351.626 45.0812 351.626C20.1835 351.626 0 371.81 0 396.708C0 421.605 20.1835 441.789 45.0812 441.789Z" fill="#F02222"/>
<path d="M45.0812 559C69.9789 559 90.1624 538.816 90.1624 513.919C90.1624 489.021 69.9789 468.838 45.0812 468.838C20.1835 468.838 0 489.021 0 513.919C0 538.816 20.1835 559 45.0812 559Z" fill="#F02222"/>
<path d="M162.292 441.789C187.19 441.789 207.374 421.605 207.374 396.708C207.374 371.81 187.19 351.626 162.292 351.626C137.395 351.626 117.211 371.81 117.211 396.708C117.211 421.605 137.395 441.789 162.292 441.789Z" fill="#F02222"/>
<path d="M162.292 559C187.19 559 207.374 538.816 207.374 513.919C207.374 489.021 187.19 468.838 162.292 468.838C137.395 468.838 117.211 489.021 117.211 513.919C117.211 538.816 137.395 559 162.292 559Z" fill="#F02222"/>
</svg>
